# xmcd
# 
# Track frame offsets:
#     187
#     12770
#     36527
#     53242
#     73045
#     91375
#     108265
#     123607
#     145915
#     161152
#     180605
# 
# Disc length: 2658
# 
# Revision: 2
# Processed by: cddbd v1.5.2PL0 Copyright (c) Steve Scherf et al.
# Submitted via: BonkEnc v1.0.6
# 
DISCID=9b0a600b
DTITLE=KREYSON - CRUSADERS
DYEAR=1993
DGENRE=Heavy Metal
TTITLE0=Pilgrimage
TTITLE1=Crusaders
TTITLE2=Commandments
TTITLE3=No Bad Thing
TTITLE4=Still
TTITLE5=Stay A Moment
TTITLE6=Forgiveness
TTITLE7=Cries
TTITLE8=Give Me Hope
TTITLE9=The Prisoner
TTITLE10=Kreyson (Cs Words Version) *
EXTD=YEAR: 1993
EXTT0=
EXTT1=
EXTT2=
EXTT3=
EXTT4=
EXTT5=
EXTT6=
EXTT7=
EXTT8=
EXTT9=
EXTT10=
PLAYORDER=
